<mxfile host="app.diagrams.net" modified="2023-11-12T19:35:13.702Z" agent="Mozilla/5.0 (Macintosh; Intel Mac OS X 10_15_7) AppleWebKit/537.36 (KHTML, like Gecko) Chrome/119.0.0.0 Safari/537.36" version="22.1.0" etag="J1lqek41ejW25rZFiCHs" type="github">
  <diagram name="Page-1" id="YiiEtE1_vHVxmvsNN_hV">
    <mxGraphModel>
      <root>
        <mxCell id="0" />
        <mxCell id="1" parent="0" />
      </root>
    </mxGraphModel>
  </diagram>
</mxfile>
